/* XPM */
static char *_9559_adb5bd415f7bd1f4b4000724403eaa9bf4b81cca9203c909ed37dfe3e8a8c241[] = {
/* columns rows colors chars-per-pixel */
"9 16 2 1 ",
"  c black",
". c None",
/* pixels */
".........",
".........",
".........",
". .   . .",
"..  ..  .",
".    .. .",
"..     ..",
".........",
".........",
".........",
".   .   .",
"... ... .",
"... .....",
"..  .  ..",
".........",
"........."
};
