/* XPM */
static char *result[] = {
/* columns rows colors chars-per-pixel */
"16 16 26 1 ",
"  c #3260FF",
". c #3261FF",
"X c #3361FF",
"o c #3362FF",
"O c #3462FF",
"+ c #465AFF",
"@ c #5753FF",
"# c #694BFF",
"$ c #7B43FF",
"% c #7C43FF",
"& c #8D3BFF",
"* c #8C3CFF",
"= c #9E34FF",
"- c #B02AFF",
"; c #B02BFF",
": c #B02CFF",
"> c #B12CFF",
", c #7FC4FF",
"< c #97BDFF",
"1 c #B2B7FF",
"2 c #B4B9FF",
"3 c #CBB3FF",
"4 c #CCB6FF",
"5 c #80C7FF",
"6 c #98C0FF",
"7 c None",
/* pixels */
"7777777777777777",
"7777777777777777",
"7777777777777777",
"7777777777777777",
"77OX ..XooooOo77",
"7+77777777777+77",
"7@75,,,,77777@@7",
"7#76<<<<77777##7",
"7$72111177777$%7",
"7&74333377777&*7",
"7=77777777777=77",
"77:;---->>>>:>77",
"7777777777777777",
"7777777777777777",
"7777777777777777",
"7777777777777777"
};
