/* XPM */
static char *result[] = {
/* columns rows colors chars-per-pixel */
"16 16 18 1 ",
"  c #3E4E5E",
". c #545D62",
"X c #565E62",
"o c #585E61",
"O c #5B6162",
"+ c #496377",
"@ c #4A6477",
"# c #4B6477",
"$ c #4C6578",
"% c #526A7C",
"& c #E6B772",
"* c #E7B872",
"= c #E9B972",
"- c #EABA73",
"; c #5D7587",
": c #5E7587",
"> c #7D92A0",
", c None",
/* pixels */
",,,,,,,,,,,,,,,,",
",,,,=&-**-&=,,,,",
",,, o.OXXO.o ,,,",
",, %:@++++@:% ,,",
",=o:>$####$>;o=,",
",&.@$######$@.&,",
",-O+########+O-,",
",*X+########+X*,",
",*X+########+X*,",
",-O+########+O-,",
",&.@$######$@.&,",
",=o:>$####$>;o=,",
",, %;@++++@;% ,,",
",,, o.OXXO.o ,,,",
",,,,=&-**-&=,,,,",
",,,,,,,,,,,,,,,,"
};
