/* XPM */
static char *result[] = {
/* columns rows colors chars-per-pixel */
"16 16 68 1 ",
"  c #66798F",
". c #687A91",
"X c #687C91",
"o c #697C92",
"O c #697D92",
"+ c #697C93",
"@ c #6A7C92",
"# c #6A7C93",
"$ c #6A7D93",
"% c #6A7E94",
"& c #6B7E94",
"* c #6B7F94",
"= c #6D7F95",
"- c #6B8095",
"; c #718399",
": c #718499",
"> c #728499",
", c #7B8EA3",
"< c #7C8EA3",
"1 c #7D8EA3",
"2 c #7E8FA2",
"3 c #8092A5",
"4 c #8192A5",
"5 c #8193A5",
"6 c #8293A6",
"7 c #8294A7",
"8 c #8495AA",
"9 c #8496AA",
"0 c #8496AB",
"q c #8596AB",
"w c #8FA0B2",
"e c #91A1B3",
"r c #91A2B7",
"t c #91A3B7",
"y c #91A3B8",
"u c #9FB0C4",
"i c #9FB1C5",
"p c #9FB2C4",
"a c #A1B0C1",
"s c #A1B1C1",
"d c #A7B6C3",
"f c #A0B1C5",
"g c #A7B5C4",
"h c #A8B7C4",
"j c #ADBBCA",
"k c #ADBCCA",
"l c #ABBCD0",
"z c #ABBDD0",
"x c #ACBED1",
"c c #ADBED2",
"v c #B0C1D4",
"b c #B8C5D3",
"n c #B9C6D4",
"m c #C3D0DC",
"M c #CDD8E2",
"N c #CDD9E3",
"B c #CED9E2",
"V c #CEDAE3",
"C c #CDDAE4",
"Z c #D4DFE9",
"A c #D4E0EA",
"S c #DBE5ED",
"D c #DBE6EE",
"F c #DFEAF0",
"G c #E1EBF2",
"H c #ECF0F5",
"J c #EDF1F5",
"K c None",
/* pixels */
"KKO          OKK",
"KKeGGGGGGGGGGwKK",
"KKkGSg1==1dSGjKK",
"K$mM;9pzzfq:Bm*K",
"K%A3tvvvvvvy5Z&K",
"KoFOcvv,<vvx@F+K",
"K6G4yvvvvvvr6G7K",
"KsGB:0illu8>VGaK",
"#nGGSh2==2hSGGb.",
"&CGGGGGGGGGGGGN-",
"oDGGGGGGGGGGGGDX",
" vvvvvvvvvvvvvv ",
" vvvvvvvvvvvJHv ",
" vvvvvvvvvvvHHv ",
" vvvvvvvvvvvvvv ",
"O              #"
};
