/* XPM */
static char *_2211_458db79ebcb417c631e04d80445cd94780629004fd177930ade153ba532142a0[] = {
/* columns rows colors chars-per-pixel */
"16 16 182 2 ",
"   c #016201",
".  c DarkGreen",
"X  c #006500",
"o  c #006600",
"O  c #016600",
"+  c #006700",
"@  c #016701",
"#  c #006800",
"$  c #006900",
"%  c #016900",
"&  c #016801",
"*  c #026901",
"=  c #006A00",
"-  c #016A00",
";  c #006B00",
":  c #016C00",
">  c #006D00",
",  c #006E00",
"<  c #006F00",
"1  c #016F00",
"2  c #016F01",
"3  c #007000",
"4  c #017000",
"5  c #007100",
"6  c #017200",
"7  c #017301",
"8  c #027002",
"9  c #017401",
"0  c #017501",
"q  c #027401",
"w  c #027501",
"e  c #017701",
"r  c #037402",
"t  c #E57B0A",
"y  c #018100",
"u  c #028601",
"i  c #018900",
"p  c #E9820F",
"a  c #EB8312",
"s  c #EA8711",
"d  c #F18C17",
"f  c #F38E1B",
"g  c #F3911C",
"h  c #F4931D",
"j  c #F5961F",
"k  c #F69921",
"l  c #F49B22",
"z  c #F79A23",
"x  c #F89F28",
"c  c #F3A321",
"v  c #F4A227",
"b  c #F4AB20",
"n  c #FAA128",
"m  c #F6AD29",
"M  c #F7B42C",
"N  c #F9A730",
"B  c #FBA830",
"V  c #FAAD37",
"C  c #FAAF39",
"Z  c #FBAF3B",
"A  c #F8B332",
"S  c #F9B039",
"D  c #FAB238",
"F  c #FAB439",
"G  c #FAB539",
"H  c #FAB938",
"J  c #FABA3C",
"K  c #FBBE3F",
"L  c #F9C03D",
"P  c #FBB740",
"I  c #FCB644",
"U  c #FCBB42",
"Y  c #FCBC41",
"T  c #FCBB44",
"R  c #FDBA48",
"E  c #FDBB48",
"W  c #FDBA49",
"Q  c #FAC241",
"!  c #FAC543",
"~  c #FCC64B",
"^  c #FEC050",
"/  c #FEC250",
"(  c #FEC350",
")  c #FFC253",
"_  c #FEC453",
"`  c #FDC752",
"'  c #FFC454",
"]  c #FFC656",
"[  c #FFC958",
"{  c #FFCC5A",
"}  c #FDD45F",
"|  c #FED362",
" . c #7472AA",
".. c #7573AA",
"X. c #7473AB",
"o. c #7573AB",
"O. c #789D80",
"+. c #799D80",
"@. c #90B48C",
"#. c #90B58C",
"$. c #93B78D",
"%. c #93B98D",
"&. c #94B88E",
"*. c #96BB8F",
"=. c #9FB796",
"-. c #96BB90",
";. c #96BC90",
":. c #97BD91",
">. c #9E9CBE",
",. c #9F9DBF",
"<. c #A19DBF",
"1. c #D5B499",
"2. c #D6B59A",
"3. c #A6C2A0",
"4. c #EEC99F",
"5. c #E2C4A1",
"6. c #EECCA4",
"7. c #F1CCA3",
"8. c #F1CDA4",
"9. c #F2CEA4",
"0. c #F3D0A5",
"q. c #F0D1A9",
"w. c #F6DBAF",
"e. c #F6DCAE",
"r. c #EFD8B1",
"t. c #F7DCB1",
"y. c #F7DDB2",
"u. c #F8DEB2",
"i. c #A19DC0",
"p. c #A09EC1",
"a. c #A19FC2",
"s. c #AFACC6",
"d. c #A2A1C8",
"f. c #A2A2C9",
"g. c #AFAFCE",
"h. c #B0ACC7",
"j. c #B0B0D0",
"k. c #D0CDD6",
"l. c #D0CED8",
"z. c #D1CFD9",
"x. c #D2D0DB",
"c. c #E2DED8",
"v. c #E2DFD8",
"b. c #E3E1DA",
"n. c #E4E2DC",
"m. c #EAE7E2",
"M. c #EBE7E3",
"N. c #EAE5E4",
"B. c #ECE7E6",
"V. c #EBE8E3",
"C. c #EBE9E4",
"Z. c #EDE8E4",
"A. c #EDE8E5",
"S. c #ECE9E5",
"D. c #EEE9E5",
"F. c #EDEBE5",
"G. c #EDEAE6",
"H. c #EDEBE7",
"J. c #EFEDE9",
"K. c #EDEDEA",
"L. c #EFEDEB",
"P. c #ECEBEC",
"I. c #EFEEEC",
"U. c #EFEFED",
"Y. c #EDEDEF",
"T. c #F0EDE8",
"R. c #F1ECE9",
"E. c #F0EEE9",
"W. c #F1ECEA",
"Q. c #F0EDEA",
"!. c #F1EDEA",
"~. c #F2EDEB",
"^. c #F0EEEA",
"/. c #F0EFEE",
"(. c #F3F1EC",
"). c #F2F0ED",
"_. c #F2F1EE",
"`. c #F3F1EE",
"'. c #F4F4F3",
"]. c #F5F5F4",
"[. c gray96",
"{. c None",
/* pixels */
"{.{.{.{.{.! Q K J A c {.{.{.{.{.",
"{.{.{.L } | { [ ] / P v s {.{.{.",
"{.{.M ~ ` ( _ ' ) ^ R C l p {.{.",
"{.b H Y U T E W I Z N x k d t {.",
"{.m G F D S V B n z j h g f a {.",
"r.e.u.y.t.w.q.2.1.6.0.9.8.7.4.5.",
"L.[.[.].'.Y.j.f.d.g.P./.U.I.K.n.",
"H.`._.).(.x.a.X.o.p.z.T.H.G.S.b.",
"S.^.Q.J.E.l.,. ...>.k.F.C.V.m.v.",
"S.~.!.W.R.B.h.i.<.s.N.D.A.Z.M.c.",
"3.:.;.-.-.*.#.O.+.@.&.$.$.$.%.=.",
"{.2 : - % % & * * @ O O O 1 0 {.",
"{.8 5 # o + o o o X . . = i e {.",
"{.{.q 4 # # $ # o X . $ y u {.{.",
"{.{.{.r 6 < , > ; # + 3 9 {.{.{.",
"{.{.{.{.{.w 7 3 ; O   {.{.{.{.{."
};
