/* XPM */
static char *result[] = {
/* columns rows colors chars-per-pixel */
"16 16 8 1 ",
"  c #36404D",
". c #5E9C76",
"X c #619F77",
"o c #619D78",
"O c #DABB7E",
"+ c #99C99E",
"@ c #F5CE85",
"# c None",
/* pixels */
"################",
"################",
"################",
"X..............o",
".++++++++++++++.",
".+  +  ++  +  +.",
".+  +  ++  +  +.",
".+  +  ++  +  +.",
".+  +  ++  +  +.",
".++++++++++++++.",
"                ",
" O O O ## O O O ",
" @ @ @ ## @ @ @ ",
"################",
"################",
"################"
};
