/* XPM */
static char *result[] = {
/* columns rows colors chars-per-pixel */
"18 18 2 1 ",
"  c #8BC34A",
". c None",
/* pixels */
"..................",
"..................",
"........ .........",
"......    .. .....",
".....      .  ....",
"....          ....",
"..             ...",
"..              ..",
"..              ..",
"..              ..",
"..              ..",
"..  ......      ..",
"...........    ...",
"............  ....",
"..................",
"............. ....",
"..................",
".................."
};
