/* XPM */
static char *result[] = {
/* columns rows colors chars-per-pixel */
"18 18 35 1 ",
"  c #1693D1",
". c #1793D1",
"X c #1893D1",
"o c #1894D1",
"O c #1994D1",
"+ c #1A94D2",
"@ c #1B95D2",
"# c #1E96D2",
"$ c #1F97D3",
"% c #2298D3",
"& c #2399D3",
"* c #2299D4",
"= c #259AD4",
"- c #289BD4",
"; c #2A9CD5",
": c #2B9CD5",
"> c #2C9DD5",
", c #2D9DD5",
"< c #2E9ED6",
"1 c #309ED6",
"2 c #319FD6",
"3 c #35A1D7",
"4 c #39A3D8",
"5 c #3AA3D8",
"6 c #3CA4D8",
"7 c #3FA5D9",
"8 c #40A6D9",
"9 c #43A7DA",
"0 c #44A8DA",
"q c #45A8DA",
"w c #4AABDB",
"e c #4EADDC",
"r c #53AFDD",
"t c #57B1DE",
"y c None",
/* pixels */
"yyyyyyyyyyyyyyyyyy",
"yyyyyyyyO=yyyyyyyy",
"yyyyyyyyX%yyyyyyyy",
"yyyyyyy*#$yyyyyyyy",
"yyyyyyy>-&1yyyyyyy",
"yyyyyyy32:<yyyyyyy",
"yyyyyyq85326yyyyyy",
"yyyyyyewq745yyyyyy",
"yyyyytr03,;,4yyyyy",
"yyyyy9;@. ..@yyyyy",
"yyyy=+ ......oyyyy",
"yyyy...yyy....yyyy",
"yyy....yyyy....yyy",
"yy.....yyyy....yyy",
"yy.....yyyy.....yy",
"y....yyyyyyyy....y",
"y.yyyyyyyyyyyyy..y",
"yyyyyyyyyyyyyyyyyy"
};
