/* XPM */
static char *_9304_12883b7ba7740434dfe9b014bd253057efa1ba1a670c0602eec8e69651b7d335[] = {
/* columns rows colors chars-per-pixel */
"50 50 256 2 ",
"   c #015D01",
".  c #045709",
"X  c #0B5713",
"o  c #185A16",
"O  c #064C08",
"+  c #026502",
"@  c #016A01",
"#  c #006509",
"$  c #016B0A",
"%  c #0A6707",
"&  c #027302",
"*  c #057508",
"=  c #0B6712",
"-  c #1D6213",
";  c #166919",
":  c #0B7613",
">  c #147419",
",  c #16690B",
"<  c #216216",
"1  c #21630C",
"2  c #1B7825",
"3  c #256827",
"4  c #367738",
"5  c #26732A",
"6  c #255722",
"7  c #3A3845",
"8  c #20275E",
"9  c #242B61",
"0  c #433C4A",
"q  c #3D7340",
"w  c #514F5A",
"e  c #686B78",
"r  c #6E7478",
"t  c #555B6A",
"y  c #202636",
"u  c #B67B39",
"i  c #C1782B",
"p  c #D17917",
"a  c #0E881C",
"s  c #1C892B",
"d  c #218328",
"f  c #279532",
"g  c #3C8244",
"h  c #498247",
"j  c #518A57",
"k  c #6F9B6E",
"l  c #6EA971",
"z  c #5EA466",
"x  c #EC8B1A",
"c  c #EC911F",
"v  c #F7981D",
"b  c #F08E1B",
"n  c #C98835",
"m  c #D38B39",
"M  c #D09138",
"N  c #E68C27",
"B  c #EC9224",
"V  c #ED9A2A",
"C  c #F29D2A",
"Z  c #F59624",
"A  c #E59539",
"S  c #F69B30",
"D  c #D8A83D",
"F  c #CAA03A",
"G  c #FAA729",
"H  c #F7AB38",
"J  c #FCB23C",
"K  c #F9B737",
"L  c #EFB031",
"P  c #F7A01D",
"I  c #F7C139",
"U  c #BA8944",
"Y  c #DD9948",
"T  c #CC9154",
"R  c #E19A49",
"E  c #D9A547",
"W  c #DAB84A",
"Q  c #D7BA54",
"!  c #D1A752",
"~  c #FBAF41",
"^  c #E5B848",
"/  c #FDB443",
"(  c #FFBB44",
")  c #FDBD4A",
"_  c #F9B646",
"`  c #ECB757",
"'  c #FEBA55",
"]  c #E6A84D",
"[  c #D19C67",
"{  c #D8B867",
"}  c #D5AC6C",
"|  c #E6B766",
" . c #F4B764",
".. c #FDC245",
"X. c #FDC34C",
"o. c #F8C84B",
"O. c #E9C553",
"+. c #FEC453",
"@. c #FECB54",
"#. c #FEC45C",
"$. c #FCC95C",
"%. c #FDD258",
"&. c #F6C947",
"*. c #FBC964",
"=. c #FED476",
"-. c #EECF71",
";. c #FFE36D",
":. c #FFE573",
">. c #DDC568",
",. c #6D6A9A",
"<. c #72748C",
"1. c #787CA7",
"2. c #6E74A8",
"3. c #5C639A",
"4. c #837FA2",
"5. c #7C969B",
"6. c #858593",
"7. c #938B9D",
"8. c #8D8F94",
"9. c #9899A1",
"0. c #9B97B8",
"q. c #8B8AAB",
"w. c #A9A8B4",
"e. c #95B0A8",
"r. c #EFBC86",
"t. c #D4B68F",
"y. c #A5D6A8",
"u. c #B4D5AD",
"i. c #B9E9B9",
"p. c #9DCAA3",
"a. c #DDC48B",
"s. c #EACB82",
"d. c #ECC894",
"f. c #ECD28C",
"g. c #FBE78F",
"h. c #C3D6BB",
"j. c #DEC8BE",
"k. c #F8D6A9",
"l. c #ECD6BB",
"z. c #F8DCBA",
"x. c #ECCEA8",
"c. c #CCE5BE",
"v. c #C7E3B8",
"b. c #FFE3BC",
"n. c #F5E8BA",
"m. c #F4E5AF",
"M. c #A8A9C9",
"N. c #BAB9D3",
"B. c #9998C6",
"V. c #BFC5C9",
"C. c #BCE5CB",
"Z. c #BFC7EE",
"A. c #C9CACA",
"S. c #D5CCCA",
"D. c #C9DBC6",
"F. c #D5D7CA",
"G. c #CAD6D8",
"H. c #D5D4D4",
"J. c #D4DBD5",
"K. c #DBDBD3",
"L. c #DBD5DB",
"P. c #D5DCDB",
"I. c #DCDBDC",
"U. c #D9D3D7",
"Y. c #CACAD7",
"T. c #E5D8CB",
"R. c #F3DBC6",
"E. c #E3DDD3",
"W. c #E4DCDC",
"Q. c #EADEDB",
"!. c #E7D7D7",
"~. c #F1D8D3",
"^. c #C9E6C7",
"/. c #D6E7CA",
"(. c #DEE3D6",
"). c #DDE5DC",
"_. c #DBECD9",
"`. c #D6E7D6",
"'. c #D8F6D8",
"]. c #CCECCF",
"[. c #E8E8C7",
"{. c #FDEBCB",
"}. c #FBE7C5",
"|. c #E5E2D6",
" X c #EBE5D4",
".X c #EAEBD7",
"XX c #E4E3DD",
"oX c #EBE3DD",
"OX c #E4EBDD",
"+X c #EDECDE",
"@X c #E1EAD5",
"#X c #FDE5D3",
"$X c #FEEBD4",
"%X c #F2E4DC",
"&X c #F3EBDD",
"*X c #FAE8D8",
"=X c #EDF5DD",
"-X c #E4F6DC",
";X c #FAF7DB",
":X c #FFF2CD",
">X c #CED7E8",
",X c #DDDCE3",
"<X c #D6D8E5",
"1X c #D9D9F7",
"2X c #CCCBEA",
"3X c #E3DDE5",
"4X c #EADDE4",
"5X c #E6DCE7",
"6X c #E7DCF9",
"7X c #F1DDE6",
"8X c #DDE4E5",
"9X c #DCEAE4",
"0X c #DEE4ED",
"qX c #D7E5E8",
"wX c #DEF9E4",
"eX c #DCE6F4",
"rX c #CDE1EC",
"tX c #E4E4E4",
"yX c #EBE3E3",
"uX c #E4EAE3",
"iX c #EBECE3",
"pX c #E4E3EA",
"aX c #EBE4EC",
"sX c #E4EBEB",
"dX c #ECEBEC",
"fX c #F3E4E3",
"gX c #F3ECE4",
"hX c #FAEBE5",
"jX c #F3E5EB",
"kX c #F3EBEB",
"lX c #FBECEB",
"zX c #FCE3E4",
"xX c #EBF2E3",
"cX c #EBF2EC",
"vX c #E5F7E8",
"bX c #F4F4EB",
"nX c #FCF5EB",
"mX c #F4FCEC",
"MX c #F8F5E5",
"NX c #E4E4F2",
"BX c #ECE4F3",
"VX c #E4EBF2",
"CX c #ECECF2",
"ZX c #E9EAFA",
"AX c #F4ECF3",
"SX c #F6EAF7",
"DX c #EDF1F2",
"FX c #EDF4FE",
"GX c #E4F4F8",
"HX c #F4F3F3",
"JX c #FDF4F3",
"KX c #F4FCF3",
"LX c #F3F6FD",
"PX c #F3FBFD",
"IX c #FDFDFD",
"UX c #FCF7F8",
/* pixels */
"6X6XpXoX X XyX4X3X4XtXXXOX8XeXrXVXrXVXG.cXJ.uXK.+XOXOXXXtX8XqXqXeXrXrXDXiXE.|.bX8XGX>XGX<XSX!.zXyXtX",
"ZX6XdXK.&XE.fXyX4X3XyXOXOXtX0X0XeXFX`.PXP.nXK.XXXX|.W.3XuXdXVXVXeXeXZXP.XX|.iXI.0XrXFXG.LXU.lX!.yXtX",
"1XdXL.kXK.dXW.yX4XtXpXtXpXpX0XtXCX<XZXA.AXU.nXgXlXhX%XQ.7X5X3X!.yXtXH.HXtXAXP.8X8XpX8XsXI.iXXXtXtXsX",
"oXE.kXL.AXK.iXXXtXtXaX6XaXtXW.|.T.hXT.nXl.;Xj.T.l.l.z.R.~.#X*X*X$XT.fXW.LXG.pXVXpXtXiXE.iXW.uXtXtXtX",
"[..XK.AXL.DX).OXXXtXNXNX7XyX Xn.n.m.g.f.-.>.>.{ { Q { { | s.d.f.k.#XR.*XA.ZX0XNXtXiXE.&XK.+X`.9XtXtX",
"n.[.iXI.ZX<XsX).).XXaXBXjX%X}.m.-.-.>.Q Q Q O.O.O.` ` ^ ] W E ] | s.b.R.bXtXVX5XyXW.%X X+X(.9X9XtXtX",
"/.[.(.VX<XZXqX8X).tXoXoX~.l.x.f.Q O.;.;.;.;.%.&.%.@.@.@.+.+.) ' R Y } k.R.*XW.sXW.kXS.JXS.KXJ.9XtXtX",
"[.[.XX0XVXeXeX8XOX.X X[.k.f.s.>.:.:.:.O.%.W %.%.+.+.+.+.+.' _ _ _ ] Y U } z.$X~.fXW.lXU.DXJ.VX9XtXtX",
"XXXXXXsXpXeXeX8XXX.Xn.f.{ >.=.g.=.*.*.*.*.*.#.$.+.#.' *.'  .' ' K K J D n T r.hX~.!.CXAX,X,XdXtXtXtX",
"pXtXtXuXtX0X5XpXoXn.f.Q O.%.=.*.*.O.*.*.$.$.$.#.#.#.#.#.' ' ' ) K K K H A m R t.#XfX3X1XNXpX3XtXtXtX",
"NXNXtXtXtX3X4XQ.-Xa.! W %.%.+.' #.X.o.o.X.@.+.@.X.X.X.....( / ( I G G G G N m T d.*XfX,XZXNX3XaXtXtX",
"NXNXtX8XtXoX%X}.f.Q D I &.K _ +.+.......X.....&.............J J I K G G G v N m T x.*XQ.5XaX5X3XpXtX",
"NXNXpXtXXX*X}.l.{ Q I I I I ) ) ) ) ) ) ) X.) ) ) ..( _ / J J J K G v P Z Z Z A i [ k.#X~.yXdX5XtXtX",
"8X8XtXtX%X#Xk.s.D W I I I I ( ~ _ _ _ ) ) ) ) _ ) ) _ ~ J H H G C Z v v v v b Z A i [ k.#XE.sXpXpXtX",
"_.).tX4X%X#Xf.! W L L I I J J / ~ ~ J / _ _ _ _ _ J H H H C C C B Z Z v Z b b b S p i r.}.*X8XVX8XtX",
").8X,XXX*Xz.-.F I I I L K J J J ~ J ~ ~ ~ ~ L H C L L V V C C Z Z Z Z B B b v v p N m ] k.*XXXpXtXtX",
"pX,XyX*X#Xa.! E L L L K K H H J ~ S ~ S ~ V V V V K N V B S V N B B B b b b c c N N i u r.z.*XE.W.tX",
"NXAXK.&Xl.a.} Q >.` ` ` ` ` ` ` ]  . . .! ` ] Y E n ] D  .M R R R Y R R A A A A Y Y [ [ t.$X~.iXtXtX",
"eXG.FXF.bX*X}.:X:Xb.}.}.}.{.#X$X{.{.{.l.:Xn.;X;X;X;X:X;X{.z.#X#X{.{.{.}.}.b.b.b.b.#X!.!.,X<XFX>XaXtX",
"<XPXY.DXtXgXnXMX;XMXnXnXnXJXJXLXIXvXKXPXKXIXD.6.r w 9.J.DXHXIXdXcXbXgXgXgX*X&X*XnXgXAXLXV.FX>XZXpXtX",
"sXJ.IXA.iXiXXXgXJXUXUXPXLXFXFXPXuX+XIXS.IX8.7 7.N.w.4.0 9.UXL.jXcXvXvXxXxXxXxX&X.X|.xX(.xXV.IXL.tXtX",
"K.KXF.xXyXnXIXIXbXDXCXGXGXGXGXGXmXnXW.IXw.7 1X6XN.6XSX2Xw 7.UXSXdXdXdXxXiXiX=X=XmX.XnX+XE..XF.OXtXtX",
"%XT.&XF.&X%X|.hXnXnXMXmXmXmXmXmXbXMXkXA.0 UX2XM.0.4.B.6X6X0 5X7XjXfXjXgXgXgXiXgXoX&X%X~.*Xj.#X%XXXtX",
"Q.%X!.%XfXfXhXJXMXgXMXgX=X=X-X=X+XtXIX6.4.1XM.1.,.4.4.B.SX<.7.UXjXlXkXjXkXjXjXjXfXJXyXhX~.%Xj.zXyXtX",
"aXaX4X5XaXSXSXlXlXkXkXhXgX&X=X&XuXDXZXe N.Z.B.3.9 9 2.4.1XB.<.LXjXjXjXaXaXBXVXVXFXpXVXCX5X3X4XtXtXtX",
"pX3X3X,X5XSXSXSXSXAXlXkXMXgXgXgXcX).IXt B.1X2.1.8 9 1.1.Z.M.<.SXkXfXjXjXdXCXDXVXVX0X0XVX<XP.tX3XtXtX",
"8X9X9XqX9XGXZXDXVXdXdXdXsXaXaXiX|.nXXX8.5.ZX0.q.,.4.4.N.NXe 6.IXoX%X XoXXXOXtXuXvX8X9XsX).P.8X8XtXtX",
"9X9X9X9X9X9XsXvXcXDXDXDXCXCXAXdXiX+XUXH.7 <XNXq.4.4.0.Y.pX0 ).nX&X&X&X&X&XxX+XuXuX).9X8XP.`.9X8XtXtX",
"`._.`.`.`._.uX-X-XOXuXuXsXsXdXsXkXIXH.dX7.w 2XFX>XeXeX>X7 9.DX8XaXyXyX4X%XoXoXoXyXOXyX3XL.,XpX0XtXtX",
").).OXXX@X-XxX=XOX-XOX+XiXiXtXuXXXtXtXPXUX5.y <.q.M.e 7 w.FX8X8XpXpXtXtX4XoXoX|.gXoXfXyXL.3XaXpXtXtX",
"6XBXBX6XyXyXxX+XMX;X=XgXgXgXgXgXlXlXyXHXH.IXCX8.r r 7.I.dXI.IXuXVXwXVXiXiXiX{.&X X X X|.F.XXsXtXtXtX",
"6X6X7X5XW.K././.c.c.c.v./.^./.F./.h./.D./.D.D.uXwX'.'.D./.`.u.^.C.C.C.C.c.v.v.v.v.v.c.D.h.K.OXtXtXtX",
"BX5XjXtX[.k 6 3 < , = > 3 - o < < 1 < 1 < < < < o < o - - - - - ; ; ; - 1 1 1 1 , 3 o 3 k 9XcXtXtXtX",
"7X5XkXF.-Xu.1 1 + $ * @ + % 1 . + + + % + + + + % + + + + + @ @ + # #   + + + + @ : 2 O y.9XK.jXtXtX",
"5XAXW.iX/.-Xh X = @ @ @ + + % % @ @ + @ + @ + @ + + + + + + @ + +     + @ + @ @ * d . h '.).W.yXtXtX",
"BXL.iXXXMXu.v.o ; = $ * @ + + % $ @ # $ # $ $ # # $ # # $ $ $ + + + + % @ @ @ * f > X i.].XXlXW.yXtX",
"aXpXU.IXF./.'.l X ; > @ + @ & + + # # # # # # # # # $ # # # # +     + @ @ @ * a f X l vXh.IX!.7XtXtX",
"5XtXdX,XuX_.'.C.q 3 X . @ @ @ @ + # # # # # @ # @ # + # # # #   % % + + @ & a f ; d '.h.mXH.AX4XpXtX",
"tXAXW.dX3XKXD.vXp.j X , : +   * + % + % + @ @ + @ + % + + + + %   % + + & a s d 4 v.h.mXF.dX,XBXtXtX",
"SXpX3X3XHXH.cXJ.wXp.4 = ; % @ @ + + % + + % + @ @ + + + + +   +   % + @ : s s ; y.c.MXS.HXI.pX0XtXtX",
"yXyX3XsXtXpX8X_.D.wXy.4 % > , @ % % @ @ @ & @ @ @ @ @ + + + @ @ +   * g s $ 4 y.'.[.!.lXU.CXqX9XtXtX",
"aX3XdX3XBX3XsXtXvXC.'.i.q . > ,   + * @ & % & & @ & & * & @ +   : 2 s # X 4 u.'..X[.lXS.IXY.GXqX8XtX",
"3XaXI.CXI.CX,XtXH.mX_.^.'.l o 2 d : + @ & * & & & & @ + + + $ > = X . 5 l '.D.=XE.lXS.UXA.LXG.wX8XtX",
"yXW.kXL.CXP.sXtXiXA.(.xX'.'.y.q . = = a + % @ : @ * : : $ % = X X X j y.wX^.IXS.fX!.lX!.HXP.wX`.tXtX",
"Q.jXL.DXP.cXP.uXXXyXW.W.-X_.].'.y.z g O ; . ;   # X = X . . o o z y.].'.`.HXV.SX3XdXL.AXU.bXK.tXtXtX",
"fXW.dXJ.sX`.iXXXXXfXoXXXuX).'.GX'.wXy.C.k l 4 4 3 3 3 q j 5.y.^.wX9X_.).3XU.IXU.ZX<XPXY.IXS.hXQ.yXtX",
"oXfXXXiX).uX).XXfX!.7X7X5XAXeXV.sXH.iXD.KX`.-Xc.^./.@XOX-XxXdXiXXXXXQ.yX5XSXY.FXrXGXC.PXA.JXT.zXyXtX",
"yXXXtX)._.).tXtXQ.jX7X4X5X5X0XPX!.aXW.iXJ.@XXXxX@X@XXXOXyXyX4XW.XXyXfX5X7X7XZX<XeXqXVXP.kX!.zX~.yXtX",
"yXtXtXtXuXyXtXtXtXyXyXtXsXyXaXpXtXtX3XtXXXtXuXXXtXXXXXtXuXtXyXtXtXXXyXtXyXpXpXpXtX8X8XpXtXyXXXyXtXtX",
"yXsXtXtXtXsXtXtXtXtXtXtXtXtXtXtXtXtXtXtXtXtXtXtXtXtXtXtXuXpXtXtXtXtXtXtXtXtXtXtXtXtXtXtXtXtXtXtXtXtX"
};
