/* XPM */
static char *result[] = {
/* columns rows colors chars-per-pixel */
"16 16 34 1 ",
"  c #66798F",
". c #687A91",
"X c #687C91",
"o c #697C92",
"O c #697D92",
"+ c #697C93",
"@ c #6A7C93",
"# c #6A7D93",
"$ c #6A7E94",
"% c #6B7E94",
"& c #6B7F94",
"* c #6B8095",
"= c #8293A6",
"- c #8294A7",
"; c #8FA0B2",
": c #91A1B3",
"> c #A1B0C1",
", c #A1B1C1",
"< c #ADBBCA",
"1 c #ADBCCA",
"2 c #B0C1D4",
"3 c #B8C5D3",
"4 c #B9C6D4",
"5 c #C3D0DC",
"6 c #CDD9E3",
"7 c #CDDAE4",
"8 c #D4DFE9",
"9 c #D4E0EA",
"0 c #DBE6EE",
"q c #DFEAF0",
"w c #E1EBF2",
"e c #ECF0F5",
"r c #EDF1F5",
"t c None",
/* pixels */
"ttO          Ott",
"tt:wwwwwwwwww;tt",
"tt1wwwwwwwwww<tt",
"t#5wwwwwwwwww5&t",
"t$9wwwwwwwwww8%t",
"toqwwwwwwwwwwq+t",
"t=wwwwwwwwwwww-t",
"t,wwwwwwwwwwww>t",
"@4wwwwwwwwwwww3.",
"%7wwwwwwwwwwww6*",
"o0wwwwwwwwwwww0X",
" 22222222222222 ",
" 2 2 2 2 2 2re2 ",
" 2         2ee2 ",
" 22222222222222 ",
"O              @"
};
