/* XPM */
static char *result[] = {
/* columns rows colors chars-per-pixel */
"16 16 25 1 ",
"  c #C74343",
". c #C94545",
"X c #CA4848",
"o c #CB4848",
"O c #CB4949",
"+ c #CB4A4A",
"@ c #CB4B4B",
"# c #EA7A7A",
"$ c #EA7B7B",
"% c #788B9C",
"& c #798D9D",
"* c #7A8D9E",
"= c #7E91A1",
"- c #7F91A1",
"; c #8091A1",
": c #8090A2",
"> c #F48B8B",
", c #F78F8F",
"< c #AEBCC9",
"1 c #AFBDC9",
"2 c #DCE7EF",
"3 c #DEE9EF",
"4 c #DFE8F0",
"5 c #E1EBF2",
"6 c None",
/* pixels */
"666666:*;6666666",
"66666=12<-666666",
"66666&453&666666",
"66666%5%%%666666",
"66666%555%666666",
"66666     666666",
"66666 ,,, 666666",
"66666 ,   666666",
"66666 ,,, 666666",
"66666 ,   666666",
"66666@,,,+666666",
"6666X$,,,#o66666",
"6666.>,,,>.66666",
"6666X$,,,#o66666",
"66666O#>#O666666",
"666666o.o6666666"
};
