/* XPM */
static char *result[] = {
/* columns rows colors chars-per-pixel */
"18 18 11 1 ",
"  c #546E7A",
". c #556E7A",
"X c #556F7B",
"o c #6E8692",
"O c #6F8793",
"+ c #79909B",
"@ c #7A909B",
"# c #78909C",
"$ c #79919D",
"% c #03A9F4",
"& c None",
/* pixels */
"&&&&&&&&&&&&&&&&&&",
"&&&&&&&&&&&&&&&&&&",
"&&&&&&&&&&&&&&&&&&",
"&&&&&&&&##&&&&&&&&",
"&&&&&&&###&&&&&&&&",
"&&&&&&####&&&&&&&&",
"&&  .O$##+&&&&&&&&",
"&&  Xo$##@&%&&&&&&",
"&&  Xo$###&&&&&&&&",
"&&  Xo$###&&&&&&&&",
"&&  Xo$##@&%&&&&&&",
"&&  .O$##+&&&&&&&&",
"&&&&&&####&&&&&&&&",
"&&&&&&&###&&&&&&&&",
"&&&&&&&&##&&&&&&&&",
"&&&&&&&&&&&&&&&&&&",
"&&&&&&&&&&&&&&&&&&",
"&&&&&&&&&&&&&&&&&&"
};
