/* XPM */
static char *result[] = {
/* columns rows colors chars-per-pixel */
"16 16 82 1 ",
"  c #D55D01",
". c #D96301",
"X c #DA6801",
"o c #DC6D00",
"O c #E66A01",
"+ c #E76F01",
"@ c #E37500",
"# c #E87401",
"$ c #E97800",
"% c #E97A01",
"& c #E97E01",
"* c #EA7E01",
"= c #EA7F01",
"- c #E47D16",
"; c #E68500",
": c #E88100",
"> c #EC8401",
", c #ED8900",
"< c #ED8901",
"1 c #ED8A01",
"2 c #EB8C00",
"3 c #EE8E00",
"4 c #EE8F01",
"5 c #EF8F01",
"6 c #ED8E02",
"7 c #EC8F03",
"8 c #EF9400",
"9 c #EF9401",
"0 c #EB910B",
"q c #F09400",
"w c #F09401",
"e c #F19900",
"r c #F19A00",
"t c #F29E00",
"y c #F29F00",
"u c #E88B15",
"i c #EA9116",
"p c #F3A400",
"a c #F3A500",
"s c #F5AA00",
"d c #F6AE00",
"f c #F6AF00",
"g c #F6B000",
"h c #F7B300",
"j c #F7B500",
"k c #F8B900",
"l c #F9BA00",
"z c #F9BE00",
"x c #D58323",
"c c #E8AF5F",
"v c #E4A867",
"b c #E3B26D",
"n c #EAB469",
"m c #CEAA8D",
"M c #D4AB80",
"N c #DDB785",
"B c #D1AF90",
"V c #D3B393",
"C c #CDB4A1",
"Z c #CED1D3",
"A c #D1D6D9",
"S c #D3D8DA",
"D c #D7DCDF",
"F c #E0D0C0",
"G c #ECDBC7",
"H c #EFDFCA",
"J c #D8DCE0",
"K c #DBE0E3",
"L c #DAE0E4",
"P c #DFE2E4",
"I c #DEE3E7",
"U c #E2E5E7",
"Y c #E5E5E4",
"T c #EEE9E2",
"R c #E1E6EA",
"E c #E5E8E9",
"W c #E5EAEF",
"Q c #EBEAE9",
"! c #E9EBED",
"~ c #EAEDF0",
"^ c #EEF1F4",
"/ c None",
/* pixels */
"////////////////",
"///////hd///////",
"////zljgsaye////",
"///zljfsayr94///",
"///ljfsayr94<///",
"//kjfsayr93,>=//",
"//jfsayr86iu&$//",
"//fsayrq7nHGv-//",
"//sayr80cT^~YF//",
"//pyrw2bQ!EUPKJ/",
"//tr95;NWRILDSA/",
"///941:xMVBmCZ//",
"////1>*@oX. ////",
"//////%#+O//////",
"////////////////",
"////////////////"
};
