/* XPM */
static char *result[] = {
/* columns rows colors chars-per-pixel */
"16 16 12 1 ",
"  c #4D79B5",
". c #4E79B5",
"X c #4D7AB5",
"o c #4E7AB4",
"O c #4E7BB4",
"+ c #4F7BB4",
"@ c #4E7AB5",
"# c #4E7BB5",
"$ c #4D79B6",
"% c #4D7AB6",
"& c #4F7AB6",
"* c None",
/* pixels */
"****************",
"****************",
"****************",
"*****#@@@@X*****",
"**+@@@@@@@@@@%**",
"*o@@@@****@@@@@*",
"@@@**********.@@",
"*X***&@@@@&***O*",
"***#@@@@@@@@#***",
"***o@@**** @o***",
"****************",
"******@@@@******",
"******$@@@******",
"*******$@*******",
"****************",
"****************"
};
